# xmcd
#
# Track frame offsets:
#	150
#	23779
#	44062
#	77912
#	97098
#	215630
#	232461
#
# Disc length: 4021 seconds
#
# Revision: 1
# Processed by: cddbd v1.5.2PL0 Copyright (c) Steve Scherf et al.
# Submitted via: audiograbber 1.83.01
#
DISCID=680fb307
DTITLE=Grateful Dead - 69-12-26 Mc Farlin Auditorium, SMU, Dallas TX
DYEAR=1900
DGENRE=
TTITLE0=China Cat Sunflower
TTITLE1=I Know You Rider
TTITLE2=High Time
TTITLE3=Me and My Uncle
TTITLE4=Dark Star
TTITLE5=New Speedway Boogie
TTITLE6=Turn On Your Lovelight
EXTD=
EXTT0=
EXTT1=
EXTT2=
EXTT3=
EXTT4=
EXTT5=
EXTT6=
PLAYORDER=
